<?xml version="1.0" encoding="UTF-8"?>
<svg width="100px" height="100px" viewBox="0 0 100 100" version="1.1" xmlns="http://www.w3.org/2000/svg" xmlns:xlink="http://www.w3.org/1999/xlink">
    <!-- Generator: Sketch 64 (93537) - https://sketch.com -->
    <title>相机未连接_normal</title>
    <desc>Created with Sketch.</desc>
    <defs>
        <path d="M0,50 C-0.0501732412,67.8465008 9.46870331,84.3588811 24.9593863,93.2966633 C40.4500693,102.234446 59.5499307,102.234446 75.0406137,93.2966633 C90.5312967,84.3588811 100.050173,67.8465008 100,50 C100.050173,32.1534992 90.5312967,15.6411189 75.0406137,6.70333667 C59.5499307,-2.23444556 40.4500693,-2.23444556 24.9593863,6.70333667 C9.46870331,15.6411189 -0.0501732412,32.1534992 0,50 Z" id="path-1"></path>
    </defs>
    <g id="相机未连接_normal" stroke="none" stroke-width="1" fill="none" fill-rule="evenodd">
        <g id="shebeiweilianjie-copy">
            <g id="形状结合">
                <mask id="mask-2" fill="white">
                    <use xlink:href="#path-1"></use>
                </mask>
                <use id="蒙版" fill="#DBDBDB" fill-rule="nonzero" opacity="0.5" xlink:href="#path-1"></use>
                <path d="M57.7248611,43.7014202 C58.5966242,42.788335 60.0358546,42.7636597 60.9404768,43.6453218 L60.9404768,43.6453218 L67.8581717,50.3938181 L73.3947226,43.8755569 C81.2446086,50.8852317 84.0540401,61.0439421 80.447534,68.4561255 L92.4756284,79.1282023 C92.9820294,79.5437478 93.0550224,80.2905053 92.6386262,80.7960133 L90,84 C89.5838017,84.5057055 88.8357722,84.5783865 88.3293712,84.1627422 L76.3489266,73.5320935 C69.6745657,78.7716169 58.6827449,78.0698953 49.9757949,71.4548181 L49.9757949,71.4548181 L55.5651717,64.8718181 L47.695454,57.1940521 C46.8337194,56.3543739 46.7702861,54.9959091 47.5192606,54.0780251 L47.6377016,53.9437668 C48.5096638,53.0309837 49.9486951,53.0037906 50.8535164,53.8855533 L50.8535164,53.8855533 L58.5321717,61.3768181 L64.8901717,53.8898181 L57.7824144,46.9539212 C56.9208695,46.1142431 56.8574452,44.7556869 57.6064201,43.8359672 Z M15,12 L29.9869625,25.4888472 C36.8873974,21.1887817 47.2989236,22.4926302 55.3998731,29.1528292 L55.3998731,29.1528292 L30.9347696,55.8155898 C23.0460008,48.2072673 20.753293,37.3943129 25.3523637,30.093101 L10.6148837,16.8287422 C10.1292531,16.3891013 10.0924599,15.6396775 10.5327914,15.1549072 L13.3235357,12.0818648 C13.7637683,11.5969959 14.5144683,11.5603591 15,12 Z" fill="#FFFFFF" fill-rule="nonzero" mask="url(#mask-2)"></path>
            </g>
        </g>
    </g>
</svg>